# xmcd
#
# Track frame offsets:
#	150
#	18608
#	38808
#	59485
#	82513
#	97408
#	115130
#	135073
#	155330
#	172023
#	190929
#	207218
#	222305
#	238508
#	257558
#	274963
#
# Disc length: 3970 seconds
#
# Revision: 0
# Processed by: cddbd v1.5.2PL0 Copyright (c) Steve Scherf et al.
# Submitted via: audiograbber 1.83.01
#
DISCID=dc0f8010
DTITLE=Best Of Rock - Pure Rock 1
DYEAR=2003
DGENRE=Rock
TTITLE0=Judas Priest - Evening Star
TTITLE1=Santana - Hold On
TTITLE2=Autograph - Turn Up The Radio
TTITLE3=Blue Öyster Cult - (Don't Fear) The Reaper
TTITLE4=Journey - Open Arms
TTITLE5=Soul Asylum - Black Gold
TTITLE6=Night Ranger - Eddie's Comin' Out Tonight
TTITLE7=Apollo 440 - Ain't Talkin' 'Bout Dub
TTITLE8=Doro - Cool Love
TTITLE9=Alice Cooper - Love's A Loaded Gun
TTITLE10=Living Colour - Solace Of You
TTITLE11=REO Speedwagon - Keep On Loving You
TTITLE12=Slade - Myzsterious Mizster Jones
TTITLE13=Spin Doctors - Two Princes
TTITLE14=Fury In The Slaughterhouse - When I'm Dead And Gone
TTITLE15=Saga - Ashes To Ashes (Chapter II)
EXTD=
EXTT0=
EXTT1=
EXTT2=
EXTT3=
EXTT4=
EXTT5=
EXTT6=
EXTT7=
EXTT8=
EXTT9=
EXTT10=
EXTT11=
EXTT12=
EXTT13=
EXTT14=
EXTT15=
PLAYORDER=
